<?xml version="1.0" encoding="UTF-8"?>
<svg xmlns="http://www.w3.org/2000/svg" width="300" height="300" viewBox="0 0 300 300">
  <defs>
    <linearGradient id="g" x1="0" y1="0" x2="1" y2="1">
      <stop offset="0" stop-color="#ffffff" stop-opacity=".06"/>
      <stop offset="1" stop-color="#000000" stop-opacity=".06"/>
    </linearGradient>
    <clipPath id="clip">
      <rect x="0" y="0" width="300" height="300" rx="8"/>
    </clipPath>
  </defs>
  <rect x="0" y="0" width="300" height="300" fill="url(#g)" />
  <!-- abstract leafy shapes -->
  <g clip-path="url(#clip)" stroke="none" fill="#ffffff" fill-opacity=".05">
    <path d="M40 70c25-40 75-40 95 0-30 10-65 10-95 0z"/>
    <path d="M200 110c20-35 60-35 78 0-25 9-53 9-78 0z"/>
    <path d="M70 190c18-28 54-28 70 0-22 8-48 8-70 0z"/>
    <path d="M160 50c14-22 42-22 56 0-18 6-38 6-56 0z"/>
    <path d="M110 130c22-36 66-36 86 0-28 10-58 10-86 0z"/>
    <path d="M220 220c22-36 66-36 86 0-28 10-58 10-86 0z" transform="translate(-60 -10)"/>
    <circle cx="250" cy="40" r="18" fill="#ffffff" fill-opacity=".04"/>
    <circle cx="40" cy="240" r="14" fill="#ffffff" fill-opacity=".04"/>
  </g>
</svg>
